<?xml version="1.0" encoding="utf-8"?>
<!-- Svg Vector Icons : http://www.onlinewebfonts.com/icon -->
<!DOCTYPE svg PUBLIC "-//W3C//DTD SVG 1.1//EN" "http://www.w3.org/Graphics/SVG/1.1/DTD/svg11.dtd">
<svg version="1.1" xmlns="http://www.w3.org/2000/svg" xmlns:xlink="http://www.w3.org/1999/xlink" x="0px" y="0px" viewBox="0 0 1000 1000" enable-background="new 0 0 1000 1000" xml:space="preserve">
<metadata> Svg Vector Icons : http://www.onlinewebfonts.com/icon </metadata>
<g><path d="M981.2,249.9c-11.8-11.8-30.9-11.8-42.7,0L500,688.4L61.5,249.9c-11.8-11.8-30.9-11.8-42.7,0c-11.8,11.8-11.8,30.9,0,42.7l457.5,457.5c5.9,5.9,13.6,8.8,21.3,8.8c0.8,0,1.5-0.1,2.3-0.1c0.8,0.1,1.5,0.1,2.3,0.1c7.7,0,15.4-2.9,21.3-8.8l457.5-457.5C992.9,280.8,992.9,261.7,981.2,249.9z"/></g>
</svg>